<?xml version="1.0" encoding="utf-8"?>
<!-- Generator: Adobe Illustrator 16.0.0, SVG Export Plug-In . SVG Version: 6.00 Build 0)  -->
<!DOCTYPE svg PUBLIC "-//W3C//DTD SVG 1.1//EN" "http://www.w3.org/Graphics/SVG/1.1/DTD/svg11.dtd">
<svg version="1.1" id="Layer_1" xmlns="http://www.w3.org/2000/svg" xmlns:xlink="http://www.w3.org/1999/xlink" x="0px" y="0px"
	 width="130px" height="130px" viewBox="416 208.5 130 130" enable-background="new 416 208.5 130 130" xml:space="preserve">
<path fill="#F42941" d="M448.9,242.395c11.487-4.237,22.31-2.965,32.902,3c8.964-5.249,18.636-6.532,28.831-4.72
	c12.684,2.255,21.509,10.656,23.254,23.333c0.807,5.847,0.835,11.972,0.068,17.819c-0.78,5.934-5.936,9.177-11.889,8.864
	c-5.871-0.31-10.231-4.217-10.992-10.154c-0.345-2.688-0.103-5.45-0.332-8.161c-0.424-5.026-3.774-8.264-8.383-8.302
	c-4.646-0.038-7.992,3.13-8.447,8.202c-0.244,2.708-0.027,5.466-0.349,8.162c-0.706,5.952-5.028,9.915-10.888,10.251
	c-6.143,0.353-11.034-3.199-12.215-9.283c-0.584-3.001-0.463-6.137-0.727-9.207c-0.438-5.14-3.629-8.2-8.394-8.123
	c-4.756,0.079-8.037,3.229-8.146,8.383c-0.176,8.176-0.041,16.359-0.072,24.539c-0.007,1.995,0.04,4.021-0.271,5.982
	c-1.019,6.427-5.85,10.735-11.815,10.726c-6.463-0.009-11.529-4.249-11.676-11.207c-0.37-17.26-0.481-34.54-0.031-51.796
	C429.571,241.3,438.757,237.558,448.9,242.395z"/>
</svg>
