<?xml version="1.0" standalone="no"?>
<!DOCTYPE svg PUBLIC "-//W3C//DTD SVG 20010904//EN"
 "http://www.w3.org/TR/2001/REC-SVG-20010904/DTD/svg10.dtd">
<svg version="1.0" xmlns="http://www.w3.org/2000/svg"
 width="238.000000pt" height="238.000000pt" viewBox="0 0 238.000000 238.000000"
 preserveAspectRatio="xMidYMid meet">
<metadata>
Created by potrace 1.13, written by Peter Selinger 2001-2015
</metadata>
<g transform="translate(0.000000,238.000000) scale(0.100000,-0.100000)"
fill="#000000" stroke="none">
<path d="M1060 2307 c-293 -69 -425 -383 -283 -673 34 -70 137 -167 226 -214
37 -19 67 -39 67 -44 0 -5 -12 -39 -27 -77 l-27 -69 -85 0 c-306 -2 -515 -139
-602 -394 -23 -67 -27 -201 -9 -281 6 -27 29 -88 52 -135 82 -170 264 -305
496 -367 88 -24 114 -26 277 -26 162 0 190 3 278 26 259 69 457 220 543 413
77 173 81 347 18 674 -57 298 -52 503 17 700 10 30 19 56 19 57 0 2 -69 3
-154 3 l-154 0 -16 -46 c-25 -75 -63 -131 -109 -162 -49 -33 -97 -55 -97 -44
0 4 14 61 30 127 16 66 30 145 30 176 0 69 -33 168 -74 221 -39 52 -128 114
-182 127 -70 18 -176 21 -234 8z m124 -291 c36 -15 66 -66 66 -113 0 -31 -43
-170 -66 -215 -8 -16 -19 -28 -25 -28 -6 0 -34 22 -61 49 -108 107 -103 262
12 313 23 10 38 9 74 -6z m444 -721 c7 -63 25 -168 42 -232 67 -270 44 -435
-79 -575 -81 -91 -223 -146 -401 -155 -132 -6 -189 2 -315 48 -77 28 -98 41
-152 93 -51 51 -64 71 -78 120 -34 119 2 230 92 283 43 25 149 55 164 47 6 -3
-45 -153 -100 -294 -11 -30 -21 -58 -21 -63 0 -4 70 -6 156 -5 l156 3 53 154
c30 84 56 156 60 159 10 10 112 -45 155 -84 22 -20 42 -35 44 -33 8 10 87 223
92 248 5 23 0 33 -33 58 -21 17 -63 43 -93 58 -30 15 -57 29 -59 31 -2 2 55
175 64 191 0 1 36 9 80 18 44 9 93 23 110 30 16 7 35 14 41 14 6 1 15 -46 22
-114z"/>
</g>
</svg>
